<svg width="762" height="568" viewBox="0 0 762 568" fill="none" xmlns="http://www.w3.org/2000/svg">
<path d="M761.051 499.11H0.0703125V499.491H761.051V499.11Z" fill="#EBEBEB"/>
<path d="M684.802 523.599H634.395V523.979H684.802V523.599Z" fill="#EBEBEB"/>
<path d="M504.175 527.738H490.949V528.119H504.175V527.738Z" fill="#EBEBEB"/>
<path d="M632.87 509.475H603.664V509.856H632.87V509.475Z" fill="#EBEBEB"/>
<path d="M145.648 512.032H79.9141V512.412H145.648V512.032Z" fill="#EBEBEB"/>
<path d="M168.841 512.032H159.207V512.412H168.841V512.032Z" fill="#EBEBEB"/>
<path d="M342.741 518.455H200.164V518.835H342.741V518.455Z" fill="#EBEBEB"/>
<path d="M360.773 431.231H66.8978C64.5956 431.227 62.3891 430.309 60.7626 428.68C59.1362 427.051 58.2227 424.843 58.2227 422.54V9.43461C58.2427 7.14562 59.165 4.95697 60.7894 3.34406C62.4137 1.73114 64.6088 0.824234 66.8978 0.820312H360.773C363.078 0.820313 365.289 1.73591 366.918 3.36567C368.548 4.99544 369.464 7.20587 369.464 9.51071V422.54C369.464 424.845 368.548 427.056 366.918 428.686C365.289 430.315 363.078 431.231 360.773 431.231ZM66.8978 1.12471C64.6965 1.12874 62.5868 2.00602 61.0317 3.56399C59.4766 5.12197 58.6031 7.23332 58.6031 9.43461V422.54C58.6031 424.742 59.4766 426.853 61.0317 428.411C62.5868 429.969 64.6965 430.846 66.8978 430.85H360.773C362.976 430.846 365.087 429.97 366.645 428.412C368.202 426.854 369.079 424.743 369.083 422.54V9.43461C369.079 7.23192 368.202 5.1206 366.645 3.56306C365.087 2.00552 362.976 1.12873 360.773 1.12471H66.8978Z" fill="#EBEBEB"/>
<path d="M689.991 431.231H396.101C393.797 431.227 391.589 430.31 389.96 428.681C388.331 427.052 387.414 424.844 387.41 422.54V9.43461C387.434 7.14423 388.36 4.9556 389.987 3.3431C391.613 1.73061 393.81 0.824191 396.101 0.820312H689.991C692.278 0.828234 694.469 1.73691 696.09 3.3494C697.711 4.96188 698.631 7.14825 698.651 9.43461V422.54C698.651 424.84 697.74 427.046 696.117 428.675C694.493 430.304 692.291 431.223 689.991 431.231ZM396.101 1.12471C393.898 1.12873 391.787 2.00552 390.229 3.56306C388.671 5.1206 387.795 7.23192 387.791 9.43461V422.54C387.795 424.743 388.671 426.854 390.229 428.412C391.787 429.97 393.898 430.846 396.101 430.85H689.991C692.194 430.846 694.305 429.97 695.863 428.412C697.42 426.854 698.297 424.743 698.301 422.54V9.43461C698.297 7.23192 697.42 5.1206 695.863 3.56306C694.305 2.00552 692.194 1.12873 689.991 1.12471H396.101Z" fill="#EBEBEB"/>
<path d="M332.543 352.195H140.137V365.771H332.543V352.195Z" fill="#EBEBEB"/>
<path d="M332.541 352.195H248.879V365.771H332.541V352.195Z" fill="#E0E0E0"/>
<path d="M168.567 365.771H140.137V499.11H168.567V365.771Z" fill="#EBEBEB"/>
<path d="M168.567 379.53L140.137 369.85V365.771H168.567V379.53Z" fill="#E0E0E0"/>
<path d="M332.544 365.771H304.113V499.11H332.544V365.771Z" fill="#E0E0E0"/>
<path d="M277.309 365.771H248.879V499.11H277.309V365.771Z" fill="#EBEBEB"/>
<path d="M277.294 379.53L248.879 369.85V365.771H277.294V379.53Z" fill="#E0E0E0"/>
<path d="M223.797 365.771H195.367V499.11H223.797V365.771Z" fill="#E0E0E0"/>
<path d="M350.623 49.7822H108.129V256.267H350.623V49.7822Z" fill="#EBEBEB"/>
<path d="M350.623 256.251H353.332V49.7665H350.623V256.251Z" fill="#E0E0E0"/>
<path d="M341.508 247.119V58.8984L117.277 58.8984V247.119H341.508Z" fill="#F5F5F5"/>
<path d="M226.676 218.552C240.373 172.893 244.178 105.547 273.309 114.831C302.439 124.115 264.283 223.697 264.283 223.697L226.676 218.552Z" fill="white"/>
<path d="M250.206 220.82C236.265 154.645 239.781 66.7973 196.466 68.8063C153.151 70.8153 196.466 223.696 196.466 223.696L250.206 220.82Z" fill="white"/>
<path d="M280.81 213.392H185.976C184.041 213.33 182.159 214.031 180.736 215.343C179.312 216.656 178.461 218.475 178.367 220.409C176.434 264.089 183.587 308.682 196.904 352.195H269.517C282.834 308.606 289.987 264.089 288.054 220.409C287.98 218.532 287.186 216.756 285.837 215.45C284.488 214.143 282.688 213.407 280.81 213.392Z" fill="#EBEBEB"/>
<path d="M496.534 72.8086H491.191V499.11H496.534V72.8086Z" fill="#E0E0E0"/>
<path d="M622.08 72.8086H616.738V499.11H622.08V72.8086Z" fill="#E0E0E0"/>
<path d="M458.651 72.8086H453.309V499.11H458.651V72.8086Z" fill="#EBEBEB"/>
<path d="M584.198 72.8086H578.855V499.11H584.198V72.8086Z" fill="#EBEBEB"/>
<path d="M622.079 69.8867H453.309V75.7158H622.079V69.8867Z" fill="#EBEBEB"/>
<path d="M622.079 174.278H453.309V180.107H622.079V174.278Z" fill="#EBEBEB"/>
<path d="M622.079 278.67H453.309V284.499H622.079V278.67Z" fill="#EBEBEB"/>
<path d="M622.079 383.061H453.309V388.89H622.079V383.061Z" fill="#EBEBEB"/>
<path d="M622.079 487.452H453.309V493.281H622.079V487.452Z" fill="#EBEBEB"/>
<path d="M622.081 69.8867H584.199V75.7158H622.081V69.8867Z" fill="#E0E0E0"/>
<path d="M622.081 174.278H584.199V180.107H622.081V174.278Z" fill="#E0E0E0"/>
<path d="M622.081 278.67H584.199V284.499H622.081V278.67Z" fill="#E0E0E0"/>
<path d="M622.081 383.061H584.199V388.89H622.081V383.061Z" fill="#E0E0E0"/>
<path d="M622.081 487.452H584.199V493.281H622.081V487.452Z" fill="#E0E0E0"/>
<path d="M521.387 105.394V97.1758H501.1V105.394C501.1 107.971 500.077 110.442 498.256 112.266C496.436 114.089 493.966 115.116 491.389 115.12C488.813 115.12 486.341 116.142 484.518 117.963C482.695 119.783 481.668 122.253 481.664 124.83V174.324H540.838V124.83C540.834 122.253 539.807 119.783 537.984 117.963C536.161 116.142 533.689 115.12 531.113 115.12C528.533 115.12 526.06 114.095 524.236 112.271C522.412 110.447 521.387 107.974 521.387 105.394Z" fill="#F0F0F0"/>
<path d="M563.378 244.729H474.465V278.684H563.378V244.729Z" fill="#F0F0F0"/>
<path d="M563.377 278.67H578.855V244.715H563.377V278.67Z" fill="#E6E6E6"/>
<path d="M563.377 263.571H578.855V259.827H563.377V263.571Z" fill="#EBEBEB"/>
<path d="M563.378 259.828H474.465V263.572H563.378V259.828Z" fill="#F5F5F5"/>
<path d="M539.56 427.426H470.113V487.452H539.56V427.426Z" fill="#F0F0F0"/>
<path d="M539.56 487.467H551.645V427.441H539.56V487.467Z" fill="#E6E6E6"/>
<path d="M539.56 460.757H551.645V454.136H539.56V460.757Z" fill="#EBEBEB"/>
<path d="M539.56 454.136H470.113V460.757H539.56V454.136Z" fill="#F5F5F5"/>
<path d="M539.56 449.494H551.645V447.135H539.56V449.494Z" fill="#EBEBEB"/>
<path d="M539.56 447.135H470.113V449.494H539.56V447.135Z" fill="#F5F5F5"/>
<path d="M487.036 322.03H474.465V383.061H487.036V322.03Z" fill="#F0F0F0"/>
<path d="M487.036 343.779H474.465V361.312H487.036V343.779Z" fill="#FAFAFA"/>
<path d="M487.038 383.076H529.805V322.046H487.038V383.076Z" fill="#E6E6E6"/>
<path d="M506.458 314.146H492.258V383.061H506.458V314.146Z" fill="#EBEBEB"/>
<path d="M506.458 336.047H492.258V346.655H506.458V336.047Z" fill="#FAFAFA"/>
<path d="M506.458 353.763H492.258V364.371H506.458V353.763Z" fill="#FAFAFA"/>
<path d="M506.474 383.061H554.766V314.147H506.474V383.061Z" fill="#E0E0E0"/>
<path d="M522.269 322.03H514.613V383.061H522.269V322.03Z" fill="#F0F0F0"/>
<path d="M520.944 329.762H515.922V375.329H520.944V329.762Z" fill="#FAFAFA"/>
<path d="M522.255 383.076H548.266V322.046H522.255V383.076Z" fill="#E6E6E6"/>
<path d="M542.711 318.819H534.066V383.061H542.711V318.819Z" fill="#EBEBEB"/>
<path d="M542.711 339.229H534.066V349.121H542.711V339.229Z" fill="#FAFAFA"/>
<path d="M542.711 355.757H534.066V365.65H542.711V355.757Z" fill="#FAFAFA"/>
<path d="M542.712 383.061H572.086V318.819H542.712V383.061Z" fill="#E0E0E0"/>
<path d="M538.781 239.185C546.174 231.791 546.174 219.803 538.781 212.409C531.387 205.015 519.399 205.015 512.005 212.409C504.611 219.803 504.611 231.791 512.005 239.185C519.399 246.579 531.387 246.579 538.781 239.185Z" fill="#F5F5F5"/>
<path d="M548.451 244.518C555.603 243.357 560.46 236.618 559.299 229.466C558.138 222.314 551.399 217.458 544.247 218.619C537.095 219.78 532.238 226.519 533.399 233.671C534.56 240.823 541.299 245.679 548.451 244.518Z" fill="#EBEBEB"/>
<path d="M380.562 567.842C543.537 567.842 675.655 560.128 675.655 550.613C675.655 541.098 543.537 533.385 380.562 533.385C217.586 533.385 85.4688 541.098 85.4688 550.613C85.4688 560.128 217.586 567.842 380.562 567.842Z" fill="#F5F5F5"/>
<path d="M192.004 432.585H387.485V533.507C387.485 534.8 387.23 536.08 386.735 537.275C386.24 538.47 385.515 539.555 384.6 540.47C383.686 541.384 382.601 542.109 381.406 542.604C380.211 543.099 378.931 543.354 377.638 543.354H201.851C200.558 543.354 199.277 543.099 198.083 542.604C196.888 542.109 195.802 541.384 194.888 540.47C193.974 539.555 193.248 538.47 192.753 537.275C192.259 536.08 192.004 534.8 192.004 533.507V432.585Z" fill="#FFC727"/>
<path d="M192.003 432.586H330.334L313.319 410.806C311.447 408.417 306.82 406.484 302.969 406.484H178.564C174.729 406.484 173.116 408.417 174.988 410.806L192.003 432.586Z" fill="#FFC727"/>
<path opacity="0.2" d="M192.003 432.586H330.334L313.319 410.806C311.447 408.417 306.82 406.484 302.969 406.484H178.564C174.729 406.484 173.116 408.417 174.988 410.806L192.003 432.586Z" fill="black"/>
<path d="M387.484 432.585H249.168L266.184 418.385C268.056 416.863 272.682 415.57 276.533 415.57H400.923C404.773 415.57 406.371 416.833 404.499 418.385L387.484 432.585Z" fill="#FFC727"/>
<path opacity="0.2" d="M249.168 432.585H387.484V533.507C387.484 534.8 387.229 536.08 386.734 537.275C386.239 538.47 385.514 539.555 384.6 540.47C383.685 541.384 382.6 542.109 381.405 542.604C380.21 543.099 378.93 543.354 377.637 543.354H259.015C257.722 543.354 256.441 543.099 255.247 542.604C254.052 542.109 252.967 541.384 252.052 540.47C251.138 539.555 250.412 538.47 249.918 537.275C249.423 536.08 249.168 534.8 249.168 533.507V432.585Z" fill="white"/>
<path opacity="0.5" d="M209.172 432.585V501.804L213.951 498.03L217.314 501.804L220.237 497.604L223.235 501.804L227.405 498.654L232.001 501.804V432.585H209.172Z" fill="white"/>
<path d="M240.115 281.592L215.535 260.954" stroke="#FFC727" stroke-miterlimit="10"/>
<path d="M252.851 292.291L245.363 285.99" stroke="#FFC727" stroke-miterlimit="10"/>
<path d="M326.486 335.485L407.576 234.137L299.608 143.489L228.076 225.569L217.422 246.1C216.893 246.683 216.49 247.368 216.238 248.114C215.987 248.86 215.891 249.649 215.958 250.434C216.025 251.218 216.254 251.98 216.629 252.672C217.004 253.364 217.517 253.971 218.138 254.455L315.543 336.246C317.127 337.522 319.135 338.153 321.164 338.011C323.193 337.87 325.094 336.968 326.486 335.485Z" fill="#FFC727"/>
<path opacity="0.5" d="M270.873 260.74L259.199 279.536L263.902 280.556L265.5 284.909L268.62 285.092L270.066 288.82L273.886 289.931L276.824 294.604L288.497 275.808L270.873 260.74Z" fill="white"/>
<path opacity="0.1" d="M404.046 231.169L331.327 312.29L228.031 225.569L299.609 143.489L404.046 231.169Z" fill="black"/>
<path d="M404.044 231.169L331.324 312.289L361.429 314.511L433.022 232.432L404.044 231.169Z" fill="#FFC727"/>
<path opacity="0.3" d="M404.044 231.169L331.324 312.289L361.429 314.511L433.022 232.432L404.044 231.169Z" fill="black"/>
<path d="M270.645 142.21L197.91 223.346L228.03 225.568L299.608 143.488L270.645 142.21Z" fill="#FFC727"/>
<path opacity="0.4" d="M270.645 142.21L197.91 223.346L228.03 225.568L299.608 143.488L270.645 142.21Z" fill="black"/>
<path opacity="0.1" d="M381.658 256.145L404.046 231.169L299.609 143.489L286.246 175.694L381.658 256.145Z" fill="black"/>
<path opacity="0.2" d="M228.031 225.569L299.609 143.489L286.246 175.694L235.839 232.128L228.031 225.569Z" fill="black"/>
<path d="M429.262 78.4405C429.551 79.4146 429.262 80.3734 428.622 80.5561C427.983 80.7387 427.237 80.0995 426.948 79.1254C426.659 78.1514 426.948 77.1925 427.587 76.9947C428.227 76.7968 428.988 77.4665 429.262 78.4405Z" fill="#263238"/>
<path d="M429.371 80.3574C429.084 83.7062 428.336 86.9993 427.148 90.1436C427.962 90.4259 428.828 90.5271 429.685 90.4404C430.542 90.3537 431.369 90.081 432.11 89.6414L429.371 80.3574Z" fill="#ED847E"/>
<path d="M431.289 71.9415C431.419 71.8672 431.516 71.7481 431.563 71.6067C431.592 71.5329 431.605 71.4541 431.602 71.375C431.599 71.296 431.58 71.2184 431.546 71.147C431.511 71.0757 431.463 71.0121 431.403 70.9603C431.343 70.9085 431.274 70.8695 431.198 70.8457C430.307 70.5038 429.346 70.3821 428.397 70.4907C427.449 70.5993 426.541 70.9352 425.75 71.4697C425.647 71.5741 425.585 71.7121 425.575 71.8584C425.566 72.0047 425.61 72.1495 425.699 72.2661C425.788 72.3827 425.916 72.4633 426.059 72.4932C426.203 72.523 426.352 72.5001 426.48 72.4285C427.112 72.0139 427.834 71.7561 428.586 71.6767C429.338 71.5973 430.098 71.6985 430.802 71.9719C430.881 72.0007 430.965 72.0129 431.049 72.0077C431.133 72.0024 431.215 71.9799 431.289 71.9415Z" fill="#263238"/>
<path d="M463.112 84.954C463.782 93.0203 465.775 107.783 470.539 111.193C470.539 111.193 469.413 120.887 452.276 123.368C433.495 126.138 441.926 115.363 441.926 115.363C451.804 111.406 450.419 103.841 447.588 96.9622L454.832 88.6523C457.618 85.578 462.747 80.8294 463.112 84.954Z" fill="#FFC3BD"/>
<path d="M476.674 115.135C478.196 113.75 475.153 108.21 473.281 107.434C468.38 105.379 448.336 107.434 440.802 113.902C440.177 114.972 439.799 116.169 439.697 117.404C439.594 118.639 439.769 119.881 440.208 121.04L476.674 115.135Z" fill="white"/>
<path d="M540.503 521.955C540.008 522.18 539.473 522.304 538.929 522.32C538.385 522.336 537.844 522.243 537.337 522.046C537.136 521.887 536.989 521.671 536.916 521.426C536.842 521.181 536.846 520.919 536.926 520.676C536.966 520.477 537.05 520.29 537.171 520.127C537.292 519.963 537.447 519.829 537.626 519.733C539.27 518.774 543.334 520.037 543.501 520.098C543.557 520.113 543.607 520.144 543.645 520.187C543.683 520.23 543.707 520.284 543.714 520.341C543.722 520.402 543.712 520.463 543.684 520.517C543.657 520.571 543.615 520.616 543.562 520.646C542.589 521.185 541.564 521.623 540.503 521.955ZM538.281 520.098L537.931 520.25C537.827 520.307 537.736 520.385 537.665 520.479C537.594 520.574 537.545 520.682 537.52 520.798C537.413 521.346 537.626 521.513 537.687 521.559C538.418 522.076 540.898 521.331 542.618 520.463C541.217 520.023 539.736 519.899 538.281 520.098Z" fill="#FFC727"/>
<path d="M543.501 520.661C543.451 520.676 543.398 520.676 543.348 520.661C541.826 520.357 538.646 518.454 538.478 517.024C538.454 516.799 538.509 516.572 538.634 516.383C538.759 516.194 538.946 516.055 539.163 515.989C539.374 515.895 539.602 515.846 539.833 515.846C540.063 515.846 540.292 515.895 540.502 515.989C542.268 516.719 543.638 520.129 543.683 520.265C543.713 520.311 543.729 520.364 543.729 520.418C543.729 520.472 543.713 520.525 543.683 520.57C543.662 520.598 543.634 520.621 543.603 520.637C543.571 520.653 543.536 520.661 543.501 520.661ZM539.543 516.506C539.499 516.493 539.451 516.493 539.407 516.506C539.056 516.658 539.072 516.841 539.087 516.917C539.178 517.77 541.339 519.307 542.877 519.87C542.42 518.881 541.355 516.963 540.274 516.506C540.039 516.416 539.779 516.416 539.543 516.506Z" fill="#FFC727"/>
<path d="M451.302 538.301C449.673 538.301 448.106 538.072 447.573 537.342C447.437 537.151 447.363 536.922 447.363 536.687C447.363 536.453 447.437 536.224 447.573 536.033C447.674 535.857 447.81 535.703 447.972 535.58C448.134 535.457 448.319 535.368 448.517 535.318C450.632 534.754 455.076 537.281 455.259 537.387C455.315 537.415 455.361 537.459 455.39 537.515C455.419 537.57 455.429 537.634 455.419 537.696C455.409 537.758 455.379 537.814 455.333 537.857C455.288 537.901 455.23 537.928 455.168 537.935C453.893 538.173 452.599 538.296 451.302 538.301ZM449.293 535.835C449.097 535.827 448.901 535.853 448.714 535.911C448.471 535.966 448.258 536.113 448.121 536.322C447.908 536.703 447.984 536.885 448.121 536.992C448.714 537.814 451.926 537.829 454.209 537.494C452.693 536.629 451.023 536.065 449.293 535.835Z" fill="#FFC727"/>
<path d="M455.136 537.951H455.014C453.492 537.266 450.448 534.511 450.676 533.08C450.676 532.746 450.981 532.319 451.802 532.243C452.1 532.21 452.401 532.239 452.686 532.328C452.972 532.417 453.236 532.564 453.461 532.761C455.09 534.085 455.425 537.509 455.44 537.646C455.448 537.699 455.441 537.753 455.42 537.801C455.398 537.85 455.363 537.891 455.318 537.92C455.262 537.95 455.198 537.961 455.136 537.951ZM452.092 532.806H451.909C451.361 532.806 451.331 533.08 451.315 533.141C451.178 534.009 453.248 536.185 454.801 537.114C454.668 535.662 454.082 534.288 453.127 533.187C452.841 532.935 452.472 532.8 452.092 532.806Z" fill="#FFC727"/>
<path d="M469.108 537.646H456.4L455.137 508.242H467.845L469.108 537.646Z" fill="#FFC3BD"/>
<path d="M558.373 517.571L546.669 521.605L534.523 493.89L546.227 489.856L558.373 517.571Z" fill="#FFC3BD"/>
<path d="M543.882 518.698L557.58 514.513C557.822 514.438 558.082 514.449 558.318 514.543C558.553 514.637 558.749 514.809 558.873 515.03L564.581 525.075C564.718 525.321 564.798 525.594 564.814 525.875C564.831 526.156 564.785 526.437 564.678 526.697C564.571 526.958 564.407 527.19 564.198 527.379C563.989 527.567 563.74 527.705 563.47 527.784C558.675 529.169 556.286 529.595 550.289 531.437C546.591 532.563 537.277 536.094 532.026 537.144C526.775 538.194 525.086 533.172 527.125 532.274C536.257 528.241 540.001 523.66 542.177 520.098C542.557 519.44 543.163 518.943 543.882 518.698Z" fill="#263238"/>
<path d="M456.492 536.17H470.357C470.608 536.173 470.85 536.261 471.046 536.418C471.242 536.575 471.38 536.793 471.437 537.037L473.949 548.33C474.011 548.603 474.011 548.886 473.947 549.158C473.884 549.43 473.76 549.684 473.584 549.901C473.408 550.118 473.185 550.293 472.932 550.411C472.678 550.529 472.402 550.588 472.122 550.583C467.115 550.507 459.947 550.202 453.6 550.202C446.249 550.202 443.159 550.613 434.53 550.613C429.325 550.613 427.879 545.347 430.055 544.86C439.994 542.684 444.849 542.456 453.433 537.159C454.343 536.556 455.401 536.214 456.492 536.17Z" fill="#263238"/>
<path d="M493.401 119.29C497.099 122.684 500.295 126.078 503.613 129.624C506.931 133.17 510.005 136.838 512.988 140.75C516.104 144.723 518.931 148.914 521.45 153.291C522.827 155.703 524.017 158.216 525.012 160.809C525.27 161.524 525.529 162.209 525.742 162.986C525.992 163.771 526.2 164.568 526.366 165.375L526.625 166.638L526.808 168.038C526.978 169.321 526.978 170.621 526.808 171.904C526.458 174.326 525.563 176.637 524.19 178.662C523.188 180.141 522.012 181.495 520.689 182.695C518.562 184.625 516.235 186.324 513.749 187.763C509.37 190.268 504.788 192.401 500.051 194.14C491.067 197.475 481.809 200.021 472.382 201.75L469.719 192.618C477.983 189.042 486.354 185.176 494.07 181.051C497.826 179.081 501.442 176.853 504.891 174.385C506.328 173.364 507.65 172.191 508.833 170.885C509.193 170.498 509.495 170.063 509.731 169.591C509.853 169.332 509.731 169.363 509.579 169.91C509.472 170.93 509.488 170.139 509.244 169.591C509.168 169.332 509.031 168.982 508.894 168.647C508.757 168.312 508.59 167.932 508.422 167.567C507.598 165.907 506.678 164.296 505.668 162.742C503.317 159.252 500.776 155.894 498.058 152.682C495.257 149.364 492.305 146.061 489.276 142.82C486.247 139.578 483.066 136.306 480.144 133.292L493.401 119.29Z" fill="#FFC3BD"/>
<path d="M473.204 191.172L461.227 194.794L468.928 207.457C468.928 207.457 476.005 204.535 477.572 198.523L473.204 191.172Z" fill="#FFC3BD"/>
<path d="M456.387 199.284L461.105 209.724L468.852 207.472L461.15 194.794L456.387 199.284Z" fill="#FFC3BD"/>
<path d="M465.334 122.73C464.192 134.905 489.944 153.747 489.944 153.747L514.737 136.777C510.431 128.837 504.138 122.151 496.473 117.372C482.258 108.271 466.764 107.601 465.334 122.73Z" fill="#FFC727"/>
<g opacity="0.3">
<path d="M465.334 122.73C464.192 134.905 489.944 153.747 489.944 153.747L514.737 136.777C510.431 128.837 504.138 122.151 496.473 117.372C482.258 108.271 466.764 107.601 465.334 122.73Z" fill="white"/>
</g>
<path d="M423.177 121.756C423.177 121.756 412.051 138.832 438.472 230.424L505.652 220.5C504.708 211.216 493.476 170.717 493.096 126.443C493.08 124.305 492.631 122.192 491.777 120.233C490.922 118.273 489.679 116.506 488.123 115.04C486.567 113.573 484.73 112.437 482.723 111.7C480.716 110.963 478.581 110.641 476.445 110.752C474.497 110.858 472.488 110.995 470.495 111.193C460.904 112.048 451.371 113.456 441.943 115.409C435.534 117.04 429.26 119.161 423.177 121.756Z" fill="#FFC727"/>
<g opacity="0.3">
<path d="M423.177 121.756C423.177 121.756 412.051 138.832 438.472 230.424L505.652 220.5C504.708 211.216 493.476 170.717 493.096 126.443C493.08 124.305 492.631 122.192 491.777 120.233C490.922 118.273 489.679 116.506 488.123 115.04C486.567 113.573 484.73 112.437 482.723 111.7C480.716 110.963 478.581 110.641 476.445 110.752C474.497 110.858 472.488 110.995 470.495 111.193C460.904 112.048 451.371 113.456 441.943 115.409C435.534 117.04 429.26 119.161 423.177 121.756Z" fill="white"/>
</g>
<path opacity="0.2" d="M421.531 151.19L421.76 150.932L437.557 152.332C439.962 162.529 431.165 176.44 426.523 182.893C424.289 172.423 422.622 161.84 421.531 151.19Z" fill="black"/>
<path opacity="0.2" d="M455.137 508.257L455.791 523.416H468.5L467.845 508.257H455.137Z" fill="black"/>
<path opacity="0.2" d="M546.227 489.856L534.523 493.89L540.794 508.181L552.498 504.148L546.227 489.856Z" fill="black"/>
<path d="M461.451 66.7517C464.252 79.0339 466.504 86.0806 462.228 94.147C455.805 106.155 439.276 104.999 432.869 93.797C427.101 83.7064 423.479 65.3211 433.889 57.0416C436.17 55.2099 438.881 53.9904 441.765 53.4986C444.649 53.0068 447.611 53.2589 450.371 54.2311C453.13 55.2032 455.596 56.8633 457.535 59.0542C459.474 61.2451 460.822 63.8945 461.451 66.7517Z" fill="#FFC3BD"/>
<path d="M436.783 78.7901L432.111 81.6514L432.552 65.6708C429.539 65.8002 426.567 64.9395 424.09 63.2204C425.779 61.6072 452.079 52.3993 460.282 53.9974C461.134 53.6473 462.169 52.0645 462.169 52.0645C462.169 52.0645 462.489 54.0582 461.104 54.8192C462.108 54.6214 464.62 55.1084 465.32 56.5847C464.167 56.27 462.944 56.3394 461.834 56.7825C461.834 56.7825 470.966 58.1675 467.724 70.8302C464.087 84.7866 465.289 92.8074 465.289 92.8074C465.289 92.8074 458.501 98.0581 452.596 97.0841C446.295 90.1439 437.194 81.8036 436.783 78.7901Z" fill="#263238"/>
<path d="M427.833 61.9572C420.421 61.9572 417.758 58.3349 415.855 55.291C421.182 54.7279 432.277 51.3035 440.511 50.7251C448.745 50.1468 457.77 51.684 455.046 55.291C452.322 58.8981 427.833 61.9572 427.833 61.9572Z" fill="#263238"/>
<path d="M429.462 58.6547C423.374 57.8024 417.438 52.0646 422.004 46.5703C423.693 50.6035 435.093 50.1317 443.19 48.4423C453.843 46.2203 461.225 49.8121 457.45 57.0718C455.381 61.0442 429.462 58.6547 429.462 58.6547Z" fill="#263238"/>
<path d="M443.359 75.1523C444.23 78.1574 444.091 81.3655 442.963 84.284C441.441 88.1042 438.062 87.328 436.297 84.0253C434.775 80.9814 433.618 75.4567 436.205 72.7019C438.793 69.9472 442.263 71.5452 443.359 75.1523Z" fill="#FFC3BD"/>
<path d="M462.305 226.907C462.305 226.907 473.202 319.671 481.116 356.015C489.776 395.83 532.498 504.376 532.498 504.376L553.805 497.01C553.805 497.01 526.41 415.281 519.135 359.622C513.549 316.886 505.589 220.5 505.589 220.5L462.305 226.907Z" fill="#263238"/>
<path d="M527.049 497.558C526.942 497.558 531.417 506.689 531.417 506.689L556.301 498.608L553.379 491.181L527.049 497.558Z" fill="#FFC727"/>
<path opacity="0.3" d="M468.316 274.499C471.726 300.281 476.094 330.812 479.929 350.308C485.575 320.432 486.9 282.702 468.316 274.499Z" fill="black"/>
<path d="M438.47 230.423C438.47 230.423 429.43 317.571 430.861 356.289C432.291 396.56 451.103 520.478 451.103 520.478H472.608C472.608 520.478 468.651 398.904 469.564 359.364C470.614 316.247 486.777 223.285 486.777 223.285L438.47 230.423Z" fill="#263238"/>
<path d="M446.919 511.91C446.827 511.91 448.136 520.828 448.136 520.828H474.299L475.014 512.869L446.919 511.91Z" fill="#FFC727"/>
<path d="M434.299 143.154C431.925 146.929 429.521 150.323 427.024 153.808C424.528 157.293 421.911 160.657 419.247 164.005C413.818 170.798 407.935 177.215 401.638 183.212C399.934 184.734 398.366 186.256 396.524 187.641L395.185 188.722L394.515 189.254C394.272 189.452 394.165 189.559 393.663 189.924C392.155 191 390.499 191.851 388.747 192.451C386.034 193.377 383.197 193.89 380.331 193.972C377.906 194.054 375.479 193.947 373.071 193.653C364.268 192.499 355.68 190.069 347.578 186.439L350.211 177.307C357.998 178.231 365.84 178.607 373.68 178.433C375.414 178.342 377.141 178.154 378.854 177.87C380.145 177.682 381.398 177.291 382.568 176.713C382.933 176.516 383.131 176.318 383.085 176.272C383.04 176.226 383.283 176.074 383.42 175.937L383.938 175.465L384.957 174.507C386.327 173.289 387.621 171.813 388.96 170.473C391.593 167.643 394.211 164.736 396.692 161.646C399.173 158.556 401.684 155.452 404.119 152.256C406.554 149.059 408.913 145.818 411.287 142.576C413.662 139.334 415.975 135.925 418.167 132.774L434.299 143.154Z" fill="#FFC3BD"/>
<path d="M443.144 139.12C448.258 155.862 418.564 174.415 418.564 174.415L399.266 149.835C403.615 141.73 408.986 134.217 415.246 127.477C428.381 113.186 439.248 126.382 443.144 139.12Z" fill="#FFC727"/>
<g opacity="0.3">
<path d="M443.144 139.12C448.258 155.862 418.564 174.415 418.564 174.415L399.266 149.835C403.615 141.73 408.986 134.217 415.246 127.477C428.381 113.186 439.248 126.382 443.144 139.12Z" fill="white"/>
</g>
<path d="M354.689 177.87L339.059 175.009L340.702 188.524C340.702 188.524 348.83 193.09 354.72 185.952L354.689 177.87Z" fill="#FFC3BD"/>
<path d="M333.031 178.053L336.41 187.808L340.671 188.524L339.028 175.009L333.031 178.053Z" fill="#FFC3BD"/>
</svg>
